<svg width="580" height="400" xmlns="http://www.w3.org/2000/svg">
 <!-- Created with Method Draw - http://github.com/duopixel/Method-Draw/ -->
 <g>
  <title>background</title>
  <rect fill="#fff" id="canvas_background" height="402" width="582" y="-1" x="-1"/>
  <g display="none" overflow="visible" y="0" x="0" height="100%" width="100%" id="canvasGrid">
   <rect fill="url(#gridpattern)" stroke-width="0" y="0" x="0" height="100%" width="100%"/>
  </g>
 </g>
 <g>
  <title>Layer 1</title>
  <path d="m268.5,91c-1,0 -3,0 -7,0c-8,0 -18,0 -32,0c-15,0 -32.078903,-1.639442 -47,6c-8.901184,4.557304 -14,12 -18,18c-4,6 -4,12 -4,21c0,11 -0.467606,25.169617 3,34c4.416565,11.246948 12.427017,20.964325 22,26c14.297974,7.521164 33.63353,13.106613 68,18c24.829437,3.535416 56.671936,5.893555 85,-1c29.230194,-7.113083 49.117188,-22.596786 62,-34c12.189545,-10.789566 16.525482,-19.517792 19,-30c2.766602,-11.719467 2.575043,-23.980484 -6,-36c-10.274963,-14.402267 -23.180939,-26.353767 -39,-35c-15.324585,-8.375969 -35.801453,-15.971958 -58,-20c-21.846863,-3.964226 -37,-4 -48,-4l-5,0" id="svg_2" stroke-width="1.5" stroke="#000" fill="none"/>
  <polyline stroke-linecap="round" id="svg_3" points="241.5,109 241.5,110 " stroke-width="1.5" stroke="#000" fill="none"/>
  <polyline stroke-linecap="round" id="svg_4" points="310.5,104 310.5,105 " stroke-width="1.5" stroke="#000" fill="none"/>
  <path d="m234.5,147c3,1 7.17572,3.607025 12,6c5.223633,2.591064 10.898102,5.399017 18,7c5.933868,1.337677 11.017609,1.503784 18,2c7.053284,0.501266 12,1 17,1c6,0 9.881531,-0.190277 13,-2c3.867981,-2.24469 6.871826,-5.089539 9,-8c3.779449,-5.168716 8.648376,-8.426544 13,-14c3.58844,-4.595993 7,-9 10,-11l1,-2l1,-3" id="svg_5" stroke-width="1.5" stroke="#000" fill="none"/>
  <path d="m238.5,218c-2,0 -7.102463,0.498764 -18,-2c-18.208984,-4.175262 -39.087769,-10.631638 -65,-17c-23.082825,-5.672989 -37.111732,-7.461182 -48,-10c-7.089928,-1.653152 -10,-4 -10,-3c0,1 2,0 3,0l1,0l1,0l1,0" id="svg_6" stroke-width="1.5" stroke="#000" fill="none"/>
  <path d="m349.5,219c6,-4 19.771454,-15.362823 45,-31c34.692963,-21.503433 57.278137,-30.263611 74,-37c11.207794,-4.515045 16,-6 18,-6l1,0" id="svg_7" stroke-width="1.5" stroke="#000" fill="none"/>
  <path d="m242.5,211c0,3 1.719788,13.074081 0,33c-2.007431,23.258759 -5.945068,42.005646 -7,52c-0.950531,9.005371 -1,16 -3,21c-2,5 -2.789856,11.07843 -4,14c-0.855713,2.065857 -1.923874,3.61731 -1,4c1.306564,0.541199 1.558197,-3.519287 5,-6c5.441971,-3.922363 15.840744,-8.541443 32,-13c24.783844,-6.838196 52.963898,-11.386169 83,-14c26.972046,-2.347168 41,-2 52,-2c5,0 8,0 9,0c1,0 2,0 3,0c2,0 5.474274,0.850647 6,0c1.175568,-1.9021 -3,-4 -6,-7c-3,-3 -6.053345,-6.968384 -9,-12c-4.074219,-6.957062 -7.690002,-12.324402 -15,-19c-5.767273,-5.266754 -11.155334,-9.873886 -16,-16c-3.101471,-3.921844 -5.917603,-5.386871 -7,-8c-0.765381,-1.847763 -1,-3 -2,-5c-2,-4 -2.83194,-9.477829 -7,-18c-3.168213,-6.477844 -9,-14 -13,-18l-1,-1l-1,0" id="svg_8" stroke-width="1.5" stroke="#000" fill="none"/>
  <path d="m257.5,315c0,1 -1,1 -2,1c-1,0 -2.061264,-0.60321 -5,0c-7.460236,1.531281 -13.235306,6.369537 -22,10c-12.395142,5.134247 -18.926163,9.170441 -28,13c-4.961395,2.093933 -8.878555,4.493469 -12,5c-0.987091,0.160187 -2,0 -2,1c0,1 2.878555,-0.493469 6,-1c4.93544,-0.800903 13,-1 23,-1c15,0 28.103592,0.919037 41,-1c9.119141,-1.356964 17.305084,-5.286774 25,-9c5.251495,-2.534149 8,-5 10,-7c2,-2 1.692535,-3.186005 3,-5c0.826904,-1.147278 1.458801,-1.693451 2,-3c0.38269,-0.923889 0,-3 0,-4c0,-1 0,-3 0,-5l-2,-2l-1,-1l-1,0" id="svg_9" stroke-width="1.5" stroke="#000" fill="none"/>
  <path d="m347.5,306c1,0 7,0 20,0c15,0 28,0 36,0c8,0 13,0 16,0c2,0 4,0 5,0c1,0 2,0 3,0c1,0 2,0 2,-1c0,-1 -0.292908,-1.292908 -1,-2c-0.707092,-0.707092 -1,-1 -2,-1c-1,0 -1,-1 -2,-1c-1,0 -2,0 -3,0c-1,0 -2,0 -4,-1c-2,-1 -4,-2 -5,-3l-1,0l-1,-1l-1,0" id="svg_10" stroke-width="1.5" stroke="#000" fill="none"/>
 </g>
</svg>