<svg width="580" height="400" xmlns="http://www.w3.org/2000/svg">
 <!-- Created with Method Draw - http://github.com/duopixel/Method-Draw/ -->
 <g>
  <title>background</title>
  <rect fill="#fff" id="canvas_background" height="402" width="582" y="-1" x="-1"/>
 </g>
 <g>
  <title>Layer 1</title>
  <path d="m274.5,114c-1,0 -8,0 -17,0c-11,0 -25,1 -39,5c-14,4 -23.558029,8.077644 -29,12c-2.29454,1.653809 -2.683777,3.051315 -3,4c-1.581146,4.743423 -7.742691,10.493484 -13,19c-3.526718,5.706345 -7.9561,14.704071 -10,23c-1.92865,7.828171 -3,14 -3,23c0,8 -1.427399,17.128372 0,25c1.52446,8.406906 5.357239,14.254059 8,20c2.436508,5.297501 6.729614,10.228851 11,15c4.715851,5.26886 12,11 18,16c6,5 12.06134,7.824615 18,10c5.056595,1.852264 9.925797,4.497559 15,5c3.98053,0.394165 10,0 15,0c8,0 13.963928,-0.085571 21,-3c4.97525,-2.060822 13.119537,-4.771942 19,-8c10.2229,-5.611816 16.377686,-9.401611 23,-14c6.415314,-4.454651 13.180237,-11.636246 18,-17c5.220215,-5.809418 9.714111,-11.21167 12,-14c0.896606,-1.093674 0.292908,-2.292892 1,-3c0.707092,-0.707108 0.692535,-1.186005 2,-3c2.480713,-3.441803 6.917603,-5.386871 8,-8c0.38269,-0.923874 1,-2 1,-3c0,-2 0.986908,-7.757111 2,-14c1.281464,-7.896698 0,-12 0,-14c0,-1 0.459503,-2.053497 0,-4c-0.513733,-2.176254 -1.540497,-4.053497 -2,-6c-0.513733,-2.176254 -1.796997,-2.2565 -3,-3c-2.690002,-1.662506 -4.094788,-3.669952 -8,-8c-3.348694,-3.712982 -6.723999,-6.222733 -10,-10c-2.779785,-3.205124 -6.222717,-5.723984 -10,-9c-4.273499,-3.706375 -8.186005,-5.692551 -10,-7c-1.147278,-0.826904 -2,-1 -3,-1c-1,0 -3,0 -5,0c-4,0 -9,0 -15,0c-7,0 -13,0 -18,0c-5,0 -7.152252,-0.765366 -9,0c-1.306549,0.541199 -0.812653,2.206802 -3,4c-2.78833,2.285873 -8.21167,5.714127 -11,8c-4.37468,3.58638 -5.61731,6.076126 -6,7c-0.541199,1.306564 -1.79393,3.087433 -4,8c-2.748062,6.119492 -5.61702,10.74707 -7,15c-1.881058,5.784607 -0.511261,11.029968 -1,15c-0.503769,4.092209 -1,8 -1,11c0,5 -0.654816,9.176971 1,14c1.45137,4.230072 5,7 7,9c2,2 3.386871,3.917603 6,5c2.771637,1.148056 4.977341,1.095444 9,2c4.974792,1.118668 12,1 19,1c6,0 12.802429,-0.432877 19,-3c2.92157,-1.210144 6.458801,-2.693436 7,-4c0.38269,-0.923874 0.652557,-4.13916 2,-7c4.019806,-8.534714 7.035522,-15.504242 10,-20c2.335541,-3.541931 3,-4 3,-5c0,-1 0.919006,-2.10701 0,-6c-0.513733,-2.176254 -3,-3 -4,-4c-1,-1 -2.934143,-1.144287 -5,-2c-2.92157,-1.210144 -6,-2 -7,-2c-2,0 -4,0 -6,0c-3,0 -5,0 -9,0c-1,0 -1.292908,0.292892 -2,1c-1.414215,1.414215 -1.540497,4.053497 -2,6c-0.513733,2.176254 -1,3 -1,4c0,1 0,3 0,4c0,1 0,2 1,2c1,0 2,0 3,0c2,0 3,0 4,0c1,0 2.186005,0.307449 4,-1c2.294525,-1.653809 4,-3 6,-5c1,-1 1,-2 1,-3c0,-1 0.707092,-2.292892 0,-3c-0.707092,-0.707108 -2,0 -3,0c-1,0 -2,0 -3,0l-1,0" id="svg_1" stroke-width="1.5" stroke="#000" fill="none"/>
 </g>
</svg>